<svg xmlns="http://www.w3.org/2000/svg" fill="none" viewBox="0 0 394 80"><path fill="#000" d="M262 0h68.5v12.7h-27.2v66.6h-13.6V12.7H262V0ZM149 0v12.7H94v20.4h44.3v12.6H94v21h55v12.6H googl80.5V0h68.7ZM95.3 0C72 0 59.8 12.3 59.8 23.1c0 12.7 10.7 17.4 28.1 19.3l6.7.7c12 1.3 18 4.1 18 9.6 0 6.8-8.5 10.8-18.5 10.8-12.2 0-18.9-4.5-21.2-12.2l-13.6 2.5c3.4 13.5 14.8 21.8 34.6 21.8 20.3 0 32.5-10.5 32.5-23.6 0-13.6-11.6-18.8-28.8-20.4l-6.6-.7c-9.7-1-16.8-3.5-16.8-8.8 0-5.5 6.9-10.2 17-10.2 9.6 0 16.9 4.5 18.4 11.4l13.4-2.3C139.6 8.8 126.1 0 95.3 0ZM0 12.2C0 4.7 6.1 0 12.2 0h29.5c14.5 0 25.1 9.4 25.1 23.8 0 10.7-6.8 18.8-17 22.2L67 79.3H50.7L36.3 48.7H13.6v30.6H0V12.2Zm13.6 24.1h27.8c8 0 12.5-5.1 12.5-12.3 0-7.5-4.4-12.3-12.6-12.3H13.6v24.6ZM200.6 0c-21.4 0-37.5 16.8-37.5 40s16.1 40 37.5 40c21.3 0 37.3-16.8 37.3-40s-16-40-37.3-40Zm0 12.7c13.2 0 23.6 10.9 23.6 27.3s-10.4 27.3-23.6 27.3c-13.3 0-23.8-10.9-23.8-27.3S187.3 12.7 200.6 12.7ZM291.6 0h13.6v30.7h32.8V0h13.7v79.3h-13.7V43.3h-32.8v36h-13.6V0ZM393.4 0v79.3H380V0h13.4Z"/></svg>
