<svg xmlns="http://www.w3.org/2000/svg" fill="none" viewBox="0 0 283 64"><path fill="black" d="M141 16c-11 0-19 7-19 18s9 18 20 18c7 0 13-3 16-7l-7-5c-2 3-6 4-9 4-5 0-9-3-10-7h28v-3c0-11-8-18-19-18Zm-9 15c1-4 4-7 9-7s8 3 9 7h-18Zm117-15c-11 0-19 7-19 18s9 18 20 18c7 0 13-3 16-7l-7-5c-2 3-6 4-9 4-5 0-9-3-10-7h28v-3c0-11-8-18-19-18Zm-9 15c1-4 4-7 9-7s8 3 9 7h-18Zm-39 3c0 6 4 10 10 10 4 0 7-2 8-5l7 4c-3 6-9 9-15 9-11 0-19-7-19-18s8-18 19-18c6 0 12 3 15 9l-7 4c-1-3-4-5-8-5-6 0-10 4-10 10Zm83-13h-9v-8l-9 3v5h-6v8h6v15c0 7 3 10 11 10 2 0 4 0 5-1v-7c-1 0-2 1-4 1-2 0-4-1-4-4V24h9v-8Zm18-4h-10v36h10V17Zm-5-15c-3 0-6 3-6 6s3 6 6 6 6-3 6-6-3-6-6-6Zm113 36c0 11-7 18-17 18s-17-7-17-18 7-18 17-18 17 7 17 18Zm-9 0c0-6-3-10-8-10s-8 4-8 10 3 10 8 10 8-4 8-10ZM141.5 0 0 64h283L141.5 0Z"/></svg>
